<?xml version="1.0"?>
<svg xmlns="http://www.w3.org/2000/svg" id="bold" enable-background="new 0 0 24 24" height="512px" viewBox="0 0 24 24" width="512px"><g><path d="m12.25 2h-1.1c-.33-1.15-1.39-2-2.65-2s-2.32.85-2.65 2h-1.1c-.41 0-.75.34-.75.75v1.5c0 .96.79 1.75 1.75 1.75h5.5c.96 0 1.75-.79 1.75-1.75v-1.5c0-.41-.34-.75-.75-.75z" data-original="#000000" class="active-path" data-old_color="#000000" fill="#FFFFFF"/><path d="m14.25 3h-.25v1.25c0 1.52-1.23 2.75-2.75 2.75h-5.5c-1.52 0-2.75-1.23-2.75-2.75v-1.25h-.25c-1.52 0-2.75 1.23-2.75 2.75v12.5c0 1.52 1.23 2.75 2.75 2.75h6.59c-.5-1.07-.8-2.25-.83-3.5h-4.76c-.41 0-.75-.34-.75-.75s.34-.75.75-.75h4.84c.09-.61.24-1.19.44-1.75h-5.28c-.41 0-.75-.34-.75-.75s.34-.75.75-.75h6c.39-.64.85-1.23 1.39-1.75h-7.39c-.41 0-.75-.34-.75-.75s.34-.75.75-.75h9.44c1.15-.6 2.44-.96 3.81-.99v-2.76c0-1.52-1.23-2.75-2.75-2.75z" data-original="#000000" class="active-path" data-old_color="#000000" fill="#FFFFFF"/><path d="m17.25 10.5c-3.722 0-6.75 3.028-6.75 6.75s3.028 6.75 6.75 6.75 6.75-3.028 6.75-6.75-3.028-6.75-6.75-6.75zm3.252 5.409-3.5 4c-.182.208-.442.332-.719.341-.011 0-.022 0-.033 0-.265 0-.519-.105-.707-.293l-2-2c-.391-.391-.391-1.023 0-1.414s1.023-.391 1.414 0l1.244 1.244 2.796-3.196c.364-.414.995-.458 1.411-.094s.458.996.094 1.412z" data-original="#000000" class="active-path" data-old_color="#000000" fill="#FFFFFF"/></g> </svg>
