<?xml version="1.0"?>
<svg xmlns="http://www.w3.org/2000/svg" id="bold" enable-background="new 0 0 24 24" height="512px" viewBox="0 0 24 24" width="512px" class="hovered-paths"><g><path d="m12.25 2h-1.1c-.33-1.15-1.39-2-2.65-2s-2.32.85-2.65 2h-1.1c-.41 0-.75.34-.75.75v1.5c0 .96.79 1.75 1.75 1.75h5.5c.96 0 1.75-.79 1.75-1.75v-1.5c0-.41-.34-.75-.75-.75z" data-original="#000000" class="hovered-path active-path" data-old_color="#000000" fill="#FFFFFF"/><path d="m14.25 3h-.25v1.25c0 1.52-1.23 2.75-2.75 2.75h-5.5c-1.52 0-2.75-1.23-2.75-2.75v-1.25h-.25c-1.52 0-2.75 1.23-2.75 2.75v12.5c0 1.52 1.23 2.75 2.75 2.75h7.38l.22-1.23c.1-.56.36-1.06.76-1.47l.8-.8h-8.16c-.41 0-.75-.34-.75-.75s.34-.75.75-.75h9.5c.05 0 .09 0 .14.02h.01l3.6-3.6v-6.67c0-1.52-1.23-2.75-2.75-2.75zm-1 11.25h-9.5c-.41 0-.75-.34-.75-.75s.34-.75.75-.75h9.5c.41 0 .75.34.75.75s-.34.75-.75.75zm0-3.25h-9.5c-.41 0-.75-.34-.75-.75s.34-.75.75-.75h9.5c.41 0 .75.34.75.75s-.34.75-.75.75z" data-original="#000000" class="hovered-path active-path" data-old_color="#000000" fill="#FFFFFF"/><path d="m12.527 24c-.197 0-.389-.078-.53-.22-.173-.173-.251-.419-.208-.661l.53-3.005c.026-.151.1-.291.208-.4l7.425-7.424c.912-.914 1.808-.667 2.298-.177l1.237 1.237c.683.682.683 1.792 0 2.475l-7.425 7.425c-.108.109-.248.182-.4.208l-3.005.53c-.043.008-.087.012-.13.012zm3.005-1.28h.01z" data-original="#000000" class="hovered-path active-path" data-old_color="#000000" fill="#FFFFFF"/></g> </svg>
